<?xml version="1.0" standalone="no"?>
<!DOCTYPE svg PUBLIC "-//W3C//DTD SVG 20010904//EN"
 "http://www.w3.org/TR/2001/REC-SVG-20010904/DTD/svg10.dtd">
<svg version="1.0" xmlns="http://www.w3.org/2000/svg"
 width="260.000000pt" height="260.000000pt" viewBox="0 0 260.000000 260.000000"
 preserveAspectRatio="xMidYMid meet">
<metadata>
Created by potrace 1.11, written by Peter Selinger 2001-2013
</metadata>
<g transform="translate(0.000000,260.000000) scale(0.100000,-0.100000)"
fill="#000000" stroke="none">
<path d="M500 2584 c-234 -50 -436 -254 -485 -489 -22 -104 -22 -1486 0 -1590
50 -238 252 -440 490 -490 104 -22 1486 -22 1590 0 238 50 440 252 490 490 22
104 22 1486 0 1590 -50 238 -252 440 -490 490 -101 21 -1497 21 -1595 -1z
m1571 -74 c90 -16 213 -84 284 -155 71 -71 139 -194 155 -284 13 -72 13 -1470
0 -1542 -16 -90 -84 -213 -155 -284 -71 -71 -194 -139 -284 -155 -72 -13
-1470 -13 -1542 0 -90 16 -213 84 -284 155 -71 71 -139 194 -155 284 -13 72
-13 1470 0 1542 16 90 84 213 155 284 68 68 193 138 275 154 64 13 1484 13
1551 1z"/>
<path d="M548 2410 c-71 -12 -180 -75 -238 -136 -30 -31 -66 -86 -88 -131
l-37 -78 0 -766 0 -766 42 -84 c53 -107 122 -175 230 -227 l78 -37 765 0 765
0 78 37 c108 52 177 120 230 227 l42 84 0 767 0 767 -42 84 c-53 107 -122 175
-230 227 l-78 37 -735 2 c-404 0 -756 -3 -782 -7z m1332 -460 l0 -130 -225 0
-225 0 0 -650 0 -650 -130 0 -130 0 0 650 0 650 -225 0 -225 0 0 130 0 130
580 0 580 0 0 -130z"/>
</g>
</svg>
